#N canvas 311 126 780 458 12;
#X obj 16 13 cnv 15 600 40 empty empty py/pyext 10 22 0 24 -260818
-1 0;
#X text 213 16 Python script objects \, (C)2003-2005 Thomas Grill;
#X text 213 32 http://grrrr.org/ext;
#X obj 376 387 dac~;
#X obj 385 328 *~ 0.2;
#X floatatom 289 92 5 0 0 0 - - -, f 5;
#X obj 410 265 pyext~ 0 0 2 1 hello hellosig, f 31;
#X obj 76 138 bng 15 250 50 0 empty empty empty 17 7 0 10 -262144 -1
-1;
#N canvas 0 22 450 300 reload-safe 1;
#X obj 21 33 inlet;
#X obj 187 201 outlet;
#X msg 103 116 reload;
#X msg 114 38 \; pd dsp 0;
#X obj 34 102 bng 15 250 50 0 empty empty empty 17 7 0 10 -262144 -1
-1;
#X msg 64 182 \; pd dsp 1;
#X connect 0 0 4 0;
#X connect 2 0 1 0;
#X connect 4 0 3 0;
#X connect 4 0 2 0;
#X connect 4 0 5 0;
#X restore 204 220 pd reload-safe;
#X obj 407 128 osc~ 2;
#X obj 245 155 +~;
#X floatatom 337 135 5 0 0 0 - - -, f 5;
#X obj 350 164 *~;
#X floatatom 476 94 5 0 0 0 - - -, f 5;
#X obj 492 322 rfft~;
#X obj 496 363 *~;
#X obj 554 364 *~;
#X obj 500 404 +~;
#X obj 626 344 metro 250;
#X obj 693 313 tgl 15 0 empty empty empty 17 7 0 10 -262144 -1 -1 0
1;
#N canvas 0 22 450 300 (subpatch) 0;
#X array magnitude 100 float 0;
#X coords 0 50 32 0 200 140 1;
#X restore 523 102 graph;
#X obj 586 402 tabwrite~ magnitude;
#X obj 170 124 osc~;
#X obj 221 302 lop~ 10000;
#X connect 4 0 3 0;
#X connect 4 0 3 1;
#X connect 5 0 10 0;
#X connect 5 0 22 0;
#X connect 6 0 14 0;
#X connect 6 0 23 0;
#X connect 7 0 8 0;
#X connect 8 0 6 0;
#X connect 9 0 12 1;
#X connect 10 0 6 0;
#X connect 11 0 12 0;
#X connect 12 0 10 1;
#X connect 13 0 9 0;
#X connect 14 0 15 0;
#X connect 14 0 15 1;
#X connect 14 0 16 0;
#X connect 14 0 16 1;
#X connect 15 0 17 0;
#X connect 16 0 17 1;
#X connect 17 0 21 0;
#X connect 18 0 21 0;
#X connect 19 0 18 0;
#X connect 23 0 4 0;
